<?xml version="1.0" standalone="no"?>
<!DOCTYPE svg PUBLIC "-//W3C//DTD SVG 20010904//EN"
 "http://www.w3.org/TR/2001/REC-SVG-20010904/DTD/svg10.dtd">
<svg version="1.0" xmlns="http://www.w3.org/2000/svg"
 width="512.000000pt" height="512.000000pt" viewBox="0 0 512.000000 512.000000"
 preserveAspectRatio="xMidYMid meet">
<metadata>
Created by potrace 1.11, written by Peter Selinger 2001-2013
</metadata>
<g transform="translate(0.000000,512.000000) scale(0.100000,-0.100000)"
fill="#000000" stroke="none">
<path d="M2410 4940 c-78 -7 -116 -13 -265 -41 -27 -6 -67 -13 -87 -16 -21 -3
-38 -9 -38 -14 0 -5 -9 -9 -20 -9 -10 0 -29 -4 -42 -9 -13 -5 -75 -28 -138
-51 -115 -42 -203 -82 -315 -143 -93 -52 -108 -61 -129 -79 -11 -10 -23 -18
-28 -18 -4 0 -16 -7 -25 -15 -10 -8 -54 -41 -98 -74 -44 -33 -118 -95 -164
-139 l-84 -78 252 -253 253 -253 37 34 c187 176 520 359 726 399 28 5 70 14
95 20 133 28 398 38 520 19 171 -27 288 -54 305 -71 5 -5 17 -9 26 -9 9 0 28
-6 42 -13 l26 -14 -57 -55 c-31 -31 -78 -81 -104 -110 l-46 -55 56 -16 c55
-15 147 -39 225 -58 82 -20 169 -42 240 -59 20 -6 56 -15 80 -20 23 -6 58 -15
77 -20 19 -5 55 -14 80 -19 25 -6 63 -16 85 -22 22 -5 57 -15 78 -20 20 -5 55
-13 77 -19 22 -5 58 -14 80 -20 22 -5 59 -15 83 -20 23 -6 58 -15 77 -20 60
-15 133 -30 136 -27 3 3 -7 44 -36 144 -80 279 -102 357 -107 383 -2 14 -8 34
-13 45 -4 11 -18 54 -29 95 -12 41 -33 111 -46 155 -13 44 -33 114 -44 155
-11 41 -31 113 -45 160 -14 47 -26 95 -26 107 0 12 -4 24 -9 27 -5 3 -12 21
-15 41 -4 19 -11 37 -15 39 -5 3 -63 -49 -129 -115 l-120 -122 -108 53 c-100
49 -230 101 -299 120 -16 5 -64 19 -105 31 -41 12 -88 23 -105 26 -16 3 -66
12 -110 20 -161 30 -442 40 -655 23z"/>
<path d="M223 3770 c-30 -12 -29 -28 2 -42 14 -6 25 -15 25 -20 0 -4 5 -8 11
-8 18 0 87 -74 99 -105 6 -15 13 -25 16 -22 9 8 32 -17 43 -47 7 -16 7 -26 0
-28 -6 -2 1 -15 14 -30 14 -15 22 -29 19 -32 -3 -3 1 -6 8 -6 7 0 10 -3 7 -7
-4 -3 -2 -12 4 -19 7 -8 7 -14 0 -18 -12 -8 4 -56 22 -69 9 -6 9 -10 1 -13
-12 -5 -7 -52 9 -71 6 -9 6 -13 -2 -13 -8 0 -11 -17 -10 -50 2 -28 -2 -55 -9
-62 -6 -6 -8 -23 -6 -38 4 -16 0 -32 -8 -41 -8 -8 -13 -20 -10 -27 2 -6 -1
-12 -7 -12 -6 0 -8 -6 -5 -13 7 -19 -14 -69 -26 -62 -5 3 -10 -3 -10 -14 0
-11 -4 -23 -10 -26 -5 -3 -10 -22 -10 -41 0 -22 -5 -34 -14 -34 -16 0 -41 -54
-32 -69 4 -5 0 -13 -8 -18 -7 -4 -19 -32 -25 -62 -6 -30 -15 -59 -20 -65 -5
-6 -11 -28 -15 -48 -4 -22 -16 -44 -29 -53 -12 -8 -16 -15 -9 -15 6 0 12 -7
12 -15 0 -8 -5 -15 -11 -15 -5 0 -7 -5 -4 -11 4 -5 4 -22 0 -37 -5 -21 -8 -23
-16 -11 -8 10 -9 7 -6 -13 2 -16 0 -28 -4 -28 -5 0 -9 -17 -9 -37 0 -53 -10
-84 -24 -76 -6 4 -5 -1 3 -10 7 -9 9 -17 3 -17 -13 0 -21 -79 -8 -83 7 -2 7
-28 0 -75 -5 -40 -7 -72 -4 -72 4 0 6 -32 5 -71 -2 -70 21 -193 34 -184 4 2 7
-6 6 -17 -2 -24 22 -79 39 -90 6 -4 11 -16 12 -26 2 -36 75 -174 95 -179 10
-3 19 -11 19 -17 0 -7 9 -22 20 -34 11 -12 20 -27 20 -35 0 -8 9 -26 20 -40
11 -14 20 -30 20 -35 0 -5 9 -12 20 -15 11 -3 20 -9 19 -14 -4 -21 2 -33 17
-33 9 0 18 -9 21 -19 3 -11 14 -22 25 -24 11 -3 17 -10 13 -16 -3 -6 1 -14 9
-17 9 -3 16 -15 16 -25 0 -11 7 -19 16 -19 18 0 46 -25 37 -34 -4 -3 1 -6 11
-6 10 0 14 -5 10 -12 -4 -6 -3 -8 4 -4 5 3 31 -14 55 -39 25 -25 48 -45 52
-45 4 0 20 -13 37 -30 16 -17 40 -30 54 -30 14 0 23 -5 22 -12 -2 -8 6 -13 20
-12 12 1 22 -4 22 -12 0 -7 8 -11 20 -9 11 2 25 -2 32 -9 7 -7 19 -11 26 -8 6
2 12 -1 12 -6 0 -5 14 -9 30 -10 17 0 28 4 25 9 -4 5 -1 9 4 9 20 0 11 22 -23
56 -19 19 -32 34 -29 34 3 0 0 7 -7 15 -7 8 -9 15 -6 15 4 0 1 10 -6 23 -7 12
-13 27 -13 32 -1 16 -36 128 -46 147 -5 9 -11 30 -14 45 -2 15 -9 51 -15 78
-6 28 -11 56 -12 63 -1 6 -4 12 -8 12 -3 0 -6 88 -7 197 -1 157 1 200 13 218
13 20 13 25 -1 38 -21 21 -19 44 5 57 19 10 19 9 8 -15 -9 -20 -9 -28 0 -34 8
-4 10 -35 6 -99 -3 -59 -1 -92 6 -92 5 0 10 -5 10 -11 0 -5 -4 -8 -10 -4 -13
8 0 -93 17 -124 15 -31 17 -61 3 -61 -6 0 -4 -13 5 -30 11 -22 12 -30 3 -30
-6 0 -3 -7 8 -15 10 -8 14 -15 8 -15 -17 0 0 -95 20 -116 10 -10 14 -20 8 -22
-13 -4 -3 -42 12 -42 8 0 8 -2 0 -8 -13 -8 -1 -52 15 -52 14 0 23 -33 11 -40
-8 -5 -3 -17 14 -35 18 -19 24 -35 20 -50 -6 -25 21 -99 34 -91 4 2 9 -9 10
-25 3 -33 33 -82 70 -112 12 -10 20 -23 16 -28 -8 -13 35 -79 52 -79 8 0 14
-6 14 -13 0 -7 9 -19 20 -27 11 -8 20 -20 20 -27 0 -7 7 -13 15 -13 9 0 15 -9
15 -22 0 -12 3 -18 7 -15 3 4 12 -2 20 -13 8 -11 36 -29 63 -41 27 -11 56 -29
66 -40 9 -10 21 -16 26 -13 5 4 18 -3 29 -15 11 -12 31 -21 45 -21 14 0 22 -4
19 -10 -3 -6 1 -7 9 -4 9 3 16 1 16 -5 0 -6 9 -11 20 -11 11 0 20 -4 20 -9 0
-9 80 -27 108 -24 6 0 12 -5 12 -12 0 -8 11 -11 32 -9 17 2 36 0 42 -5 6 -4
18 -8 26 -9 8 0 36 -2 63 -5 26 -2 47 0 47 4 0 5 3 8 8 7 17 -5 118 14 131 25
12 10 13 9 7 -3 -5 -10 -3 -10 6 2 8 9 23 18 33 20 11 1 25 8 32 13 7 6 19 16
27 23 9 7 19 12 23 12 16 0 43 12 43 18 -1 26 -52 44 -134 46 -22 1 -41 6 -43
12 -2 5 -17 9 -33 8 -17 -1 -30 3 -30 8 0 7 -5 6 -14 -1 -8 -7 -15 -8 -18 -2
-1 5 -16 11 -33 13 -16 2 -32 6 -35 10 -3 4 -17 9 -30 11 -45 9 -70 19 -70 29
0 6 -8 4 -17 -3 -11 -10 -14 -10 -9 -1 5 8 -1 12 -19 12 -15 0 -24 4 -20 10 4
6 -5 10 -20 10 -15 0 -24 4 -20 10 4 6 3 10 -2 9 -26 -5 -53 3 -53 15 0 9 -7
12 -20 9 -12 -3 -22 1 -26 10 -3 9 -12 13 -20 10 -9 -3 -14 0 -12 8 2 9 -4 13
-14 11 -10 -2 -18 1 -18 6 0 4 -16 16 -36 25 -19 10 -32 22 -29 27 3 6 -1 10
-9 10 -8 0 -19 6 -23 13 -4 8 -16 16 -26 20 -9 4 -22 18 -27 32 -5 14 -14 25
-20 25 -5 0 -10 5 -10 10 0 14 62 40 74 33 5 -4 6 -1 2 5 -5 8 0 12 13 12 12
0 21 5 21 11 0 5 5 7 12 3 6 -4 8 -3 5 3 -8 12 31 46 44 38 5 -4 12 1 15 9 3
9 10 13 15 10 5 -3 9 2 9 10 0 8 6 19 14 23 8 4 34 26 57 48 24 22 44 38 44
35 1 -14 75 75 75 91 0 10 9 23 20 29 11 6 20 20 20 30 0 11 5 20 10 20 6 0
10 11 10 25 0 14 7 28 15 31 8 4 12 10 9 15 -3 5 1 9 9 9 8 0 17 9 20 20 3 11
1 18 -4 14 -5 -3 -6 2 -3 10 3 9 10 14 14 11 5 -3 11 14 15 37 4 24 12 49 17
56 6 6 8 27 4 45 -4 19 -3 27 3 19 6 -10 10 -6 14 15 3 15 0 31 -5 35 -8 4 -6
17 5 41 10 19 17 52 16 74 0 30 -2 34 -9 18 -6 -15 -8 -11 -7 17 1 20 6 36 12
35 14 -3 4 120 -15 177 -5 17 -8 45 -6 61 2 17 -3 41 -11 54 -9 14 -10 20 -3
16 8 -5 10 -2 7 11 -3 11 -8 34 -12 52 -4 18 -10 30 -14 27 -5 -2 -7 9 -5 26
2 18 -2 37 -11 45 -8 8 -12 20 -9 28 6 15 -41 163 -59 184 -6 8 -11 17 -9 19
7 10 0 23 -10 17 -7 -4 -8 -3 -4 5 4 6 0 25 -8 43 -9 17 -16 37 -16 44 0 8
-11 21 -26 30 -14 9 -23 23 -20 30 3 8 1 14 -5 14 -6 0 -8 4 -4 9 3 5 1 12 -4
15 -5 4 -12 23 -16 44 -3 22 -19 52 -37 71 -16 17 -28 35 -24 38 7 7 -16 51
-42 80 -10 13 -22 20 -26 16 -5 -6 -8 4 -5 23 0 4 -3 10 -8 13 -17 11 -53 69
-53 84 0 9 -13 29 -30 45 -16 17 -30 35 -30 41 0 6 -5 11 -11 11 -5 0 -8 4 -5
9 4 5 -8 23 -25 40 -17 17 -28 31 -24 31 3 0 1 9 -5 20 -6 11 -17 20 -25 20
-8 0 -15 4 -15 8 0 5 -14 23 -31 40 -17 18 -28 32 -24 32 4 0 2 7 -5 15 -7 9
-19 14 -27 11 -7 -3 -13 -1 -13 5 0 6 -11 20 -25 31 -14 11 -23 24 -20 29 4 5
1 9 -4 9 -6 0 -20 8 -30 18 -35 31 -50 42 -58 42 -4 0 -28 18 -52 40 -24 22
-50 40 -57 40 -8 0 -14 5 -14 10 0 6 -6 10 -14 10 -8 0 -21 8 -28 18 -7 9 -22
19 -33 20 -11 2 -28 11 -37 19 -9 8 -21 12 -26 9 -5 -3 -19 5 -32 19 -12 13
-28 21 -34 19 -7 -3 -25 2 -41 10 -16 8 -33 12 -38 9 -6 -3 -7 -1 -3 5 4 7 1
12 -9 12 -9 0 -13 5 -10 10 4 6 -12 10 -39 10 -28 0 -46 4 -46 12 0 6 -3 9 -6
5 -4 -3 -19 0 -35 8 -15 8 -44 15 -64 15 -20 0 -35 5 -35 12 0 9 -3 9 -11 1
-11 -11 -49 -6 -49 6 0 3 -16 6 -35 5 -19 -1 -35 3 -35 8 0 7 -4 7 -12 1 -13
-10 -51 -10 -98 1 -14 3 -35 1 -47 -4z m284 -607 c-3 -10 -5 -4 -5 12 0 17 2
24 5 18 2 -7 2 -21 0 -30z m433 -1295 c0 -18 -2 -20 -9 -8 -6 8 -7 18 -5 22 9
14 14 9 14 -14z m1077 -125 c-3 -10 -5 -4 -5 12 0 17 2 24 5 18 2 -7 2 -21 0
-30z"/>
<path d="M4952 3179 c-12 -4 -29 -6 -37 -3 -8 4 -15 2 -15 -4 0 -5 -12 -12
-27 -15 -25 -4 -190 -47 -423 -109 -75 -19 -120 -31 -172 -44 -32 -7 -32 -6
-14 -104 32 -177 40 -304 27 -442 -18 -186 -63 -385 -115 -501 -68 -154 -122
-247 -206 -360 -62 -83 -198 -237 -210 -237 -4 0 -15 28 -25 63 -9 34 -21 71
-25 82 -4 11 -16 47 -25 80 -10 33 -21 64 -25 68 -7 8 -78 -56 -118 -108 -13
-16 -72 -82 -132 -145 -60 -63 -166 -178 -237 -255 -151 -166 -125 -137 -249
-271 -97 -104 -171 -184 -262 -284 -37 -40 -39 -45 -22 -48 11 -2 20 -8 20
-13 0 -5 17 -9 37 -9 20 0 50 -4 67 -9 17 -5 74 -19 126 -31 52 -11 115 -26
140 -31 25 -6 64 -15 88 -20 83 -18 138 -30 172 -39 19 -5 58 -14 85 -20 28
-6 66 -15 85 -20 19 -5 49 -12 65 -15 89 -18 153 -32 248 -56 23 -5 61 -14 85
-20 23 -5 61 -13 85 -19 69 -15 159 -31 162 -28 2 2 -3 21 -11 43 -7 22 -14
47 -14 56 0 9 -6 29 -14 43 -7 15 -26 69 -42 122 -25 85 -26 97 -12 105 91 51
312 246 460 407 231 251 433 639 524 1002 42 170 57 304 61 540 5 263 -6 380
-59 600 -13 56 -17 60 -46 49z"/>
</g>
</svg>
